<svg xmlns="http://www.w3.org/2000/svg" width="207" height="55" viewBox="0 0 207 55" fill="none">
    <path d="M33.813 40.29C30.314 40.29 28.505 38.858 28.308 35.993H23C23.157 41.882 26.735 44.866 33.813 44.866C40.576 44.866 44.114 42.24 44.429 36.948C44.586 33.526 43.171 31.298 40.183 30.264C38.0951 29.5259 35.9686 28.9016 33.813 28.394C30.314 27.598 28.623 26.365 28.623 24.654C28.741 22.585 30.156 21.511 32.987 21.471C35.307 21.471 36.919 22.227 37.823 23.779C38.334 24.813 39.12 25.371 40.261 25.371H43.328C43.014 19.761 39.75 16.976 33.459 16.976C26.853 16.936 23.511 19.721 23.394 25.411C23.394 28.992 25.989 31.459 31.218 32.811L36.526 34.283C38.177 34.76 38.964 35.636 38.964 36.949C39.003 39.177 37.313 40.29 33.813 40.29ZM55.951 27.757C58.27 27.757 59.45 28.831 59.568 31.019V44.467H64.837V31.1C64.876 28.912 66.056 27.837 68.375 27.837C70.694 27.837 71.875 28.911 71.993 31.1V41.922C71.993 43.593 72.858 44.429 74.588 44.548H77.301V32.174C77.34 26.166 74.391 23.182 68.454 23.182C65.78 23.182 63.736 23.739 62.242 24.893C60.748 23.699 58.703 23.103 56.029 23.103C50.092 23.103 47.104 26.087 47.104 32.095V44.469H52.412V31.02C52.451 28.832 53.631 27.757 55.951 27.757ZM87.631 40.569C85.979 40.569 85.114 39.773 84.996 38.102C84.996 36.55 86.058 35.556 88.142 35.158C89.675 34.84 91.091 34.402 92.309 33.885V35.835C92.309 38.819 90.54 40.569 87.631 40.569ZM88.849 27.439C91.012 27.439 92.113 28.036 92.231 29.229C92.231 30.383 91.091 31.059 88.849 31.338C83.581 31.855 79.964 33.208 79.846 38.261C79.846 42.916 83.306 45.264 88.299 44.866C93.922 44.468 97.382 41.882 97.382 36.073V28.911C97.264 25.012 94.354 23.102 88.614 23.102C83.817 23.102 81.104 25.012 80.475 28.911H85.704C85.979 27.916 87.001 27.439 88.849 27.439ZM99.9 44.468H105.208V33.527C105.208 30.463 106.663 28.912 109.572 28.912H111.341V23.421H110.594C103.635 23.421 100.057 26.803 99.9 33.606V44.468ZM122.52 24.574V23.42H119.374V20.078C119.374 18.686 118.234 17.412 116.858 17.412H114.145V40.41C114.106 42.757 115.049 43.991 117.015 44.19C118.981 44.389 120.829 44.389 122.52 44.23V40.211H120.908C119.886 40.211 119.374 39.734 119.374 38.858V27.2H119.925C121.38 27.2 122.52 26.086 122.52 24.574ZM128.185 17.413H125.472V44.468H130.701V19.999C130.701 18.606 129.561 17.413 128.185 17.413ZM135.813 48.208V52.545C135.97 52.664 136.678 52.704 138.015 52.704C142.34 52.704 143.598 51.51 144.856 48.049L153.074 23.421H149.417C148.081 23.421 147.255 24.058 146.94 25.291L143.323 38.023L139.195 23.421H133.257L140.335 43.991C141.16 46.776 140.138 48.208 137.268 48.208H135.813Z" fill="#506E66"/>
    <path fill-rule="evenodd" clip-rule="evenodd" d="M0 11.702C6.387 11.702 11.564 6.463 11.564 0C11.564 6.463 16.742 11.702 23.128 11.702C16.741 11.702 11.564 16.941 11.564 23.404C11.564 16.941 6.387 11.702 0 11.702ZM8.095 11.702C10.011 11.702 11.564 10.13 11.564 8.191C11.564 10.13 13.117 11.702 15.033 11.702C13.117 11.702 11.564 13.274 11.564 15.213C11.564 13.274 10.011 11.702 8.095 11.702Z" fill="#506E66"/>
</svg>